<?xml version="1.0" encoding="UTF-8" standalone="no"?>
<!DOCTYPE svg PUBLIC "-//W3C//DTD SVG 1.1//EN" "http://www.w3.org/Graphics/SVG/1.1/DTD/svg11.dtd">
<svg xmlns="http://www.w3.org/2000/svg" xmlns:xl="http://www.w3.org/1999/xlink" version="1.1" viewBox="136 531 645 277" width="645pt" height="277pt" xmlns:dc="http://purl.org/dc/elements/1.1/">
  <metadata> Produced by OmniGraffle 7.3.1 
    <dc:date>2017-08-06 03:40:36 +0000</dc:date>
  </metadata>
  <defs/>
  <g stroke="none" stroke-opacity="1" stroke-dasharray="none" fill="none" fill-opacity="1">
    <title>Canvas 1</title>
    <rect fill="white" width="922" height="808"/>
    <g>
      <title>Layer 1</title>
      <rect x="688.45455" y="532" width="45.954545" height="275" fill="white"/>
      <rect x="688.45455" y="532" width="45.954545" height="275" stroke="black" stroke-linecap="round" stroke-linejoin="round" stroke-width="1"/>
      <rect x="734.4091" y="532" width="45.954545" height="275" fill="#ccc"/>
      <rect x="734.4091" y="532" width="45.954545" height="275" stroke="black" stroke-linecap="round" stroke-linejoin="round" stroke-width="1"/>
      <rect x="596.54545" y="532" width="45.954545" height="275" fill="white"/>
      <rect x="596.54545" y="532" width="45.954545" height="275" stroke="black" stroke-linecap="round" stroke-linejoin="round" stroke-width="1"/>
      <rect x="642.5" y="532" width="45.954545" height="275" fill="#ccc"/>
      <rect x="642.5" y="532" width="45.954545" height="275" stroke="black" stroke-linecap="round" stroke-linejoin="round" stroke-width="1"/>
      <rect x="655.84" y="532" width="32.614523" height="173" fill="black"/>
      <rect x="655.84" y="532" width="32.614523" height="173" stroke="black" stroke-linecap="round" stroke-linejoin="round" stroke-width="1"/>
      <rect x="688.45455" y="532" width="32.614523" height="173" fill="#666"/>
      <rect x="688.45455" y="532" width="32.614523" height="173" stroke="black" stroke-linecap="round" stroke-linejoin="round" stroke-width="1"/>
      <rect x="504.63636" y="532" width="45.954545" height="275" fill="white"/>
      <rect x="504.63636" y="532" width="45.954545" height="275" stroke="black" stroke-linecap="round" stroke-linejoin="round" stroke-width="1"/>
      <rect x="550.5909" y="532" width="45.954545" height="275" fill="#ccc"/>
      <rect x="550.5909" y="532" width="45.954545" height="275" stroke="black" stroke-linecap="round" stroke-linejoin="round" stroke-width="1"/>
      <rect x="563.9309" y="532" width="32.614523" height="173" fill="black"/>
      <rect x="563.9309" y="532" width="32.614523" height="173" stroke="black" stroke-linecap="round" stroke-linejoin="round" stroke-width="1"/>
      <rect x="596.54545" y="532" width="32.614523" height="173" fill="#666"/>
      <rect x="596.54545" y="532" width="32.614523" height="173" stroke="black" stroke-linecap="round" stroke-linejoin="round" stroke-width="1"/>
      <rect x="458.6818" y="532" width="45.954545" height="275" fill="#ccc"/>
      <rect x="458.6818" y="532" width="45.954545" height="275" stroke="black" stroke-linecap="round" stroke-linejoin="round" stroke-width="1"/>
      <rect x="472.02184" y="532" width="32.614523" height="173" fill="black"/>
      <rect x="472.02184" y="532" width="32.614523" height="173" stroke="black" stroke-linecap="round" stroke-linejoin="round" stroke-width="1"/>
      <rect x="504.63636" y="532" width="32.614523" height="173" fill="#666"/>
      <rect x="504.63636" y="532" width="32.614523" height="173" stroke="black" stroke-linecap="round" stroke-linejoin="round" stroke-width="1"/>
      <rect x="228.9091" y="532" width="45.954545" height="275" fill="white"/>
      <rect x="228.9091" y="532" width="45.954545" height="275" stroke="black" stroke-linecap="round" stroke-linejoin="round" stroke-width="1"/>
      <rect x="137" y="532" width="45.954545" height="275" fill="white"/>
      <rect x="137" y="532" width="45.954545" height="275" stroke="black" stroke-linecap="round" stroke-linejoin="round" stroke-width="1"/>
      <rect x="182.95455" y="532" width="45.954545" height="275" fill="#ccc"/>
      <rect x="182.95455" y="532" width="45.954545" height="275" stroke="black" stroke-linecap="round" stroke-linejoin="round" stroke-width="1"/>
      <rect x="196.29457" y="532" width="32.614523" height="173" fill="black"/>
      <rect x="196.29457" y="532" width="32.614523" height="173" stroke="black" stroke-linecap="round" stroke-linejoin="round" stroke-width="1"/>
      <rect x="228.9091" y="532" width="32.614523" height="173" fill="#666"/>
      <rect x="228.9091" y="532" width="32.614523" height="173" stroke="black" stroke-linecap="round" stroke-linejoin="round" stroke-width="1"/>
      <rect x="320.8182" y="532" width="45.954545" height="275" fill="white"/>
      <rect x="320.8182" y="532" width="45.954545" height="275" stroke="black" stroke-linecap="round" stroke-linejoin="round" stroke-width="1"/>
      <rect x="366.77273" y="532" width="45.954545" height="275" fill="#ccc"/>
      <rect x="366.77273" y="532" width="45.954545" height="275" stroke="black" stroke-linecap="round" stroke-linejoin="round" stroke-width="1"/>
      <rect x="274.86364" y="532" width="45.954545" height="275" fill="#ccc"/>
      <rect x="274.86364" y="532" width="45.954545" height="275" stroke="black" stroke-linecap="round" stroke-linejoin="round" stroke-width="1"/>
      <rect x="288.20366" y="532" width="32.614523" height="173" fill="black"/>
      <rect x="288.20366" y="532" width="32.614523" height="173" stroke="black" stroke-linecap="round" stroke-linejoin="round" stroke-width="1"/>
      <rect x="320.8182" y="532" width="32.614523" height="173" fill="#666"/>
      <rect x="320.8182" y="532" width="32.614523" height="173" stroke="black" stroke-linecap="round" stroke-linejoin="round" stroke-width="1"/>
      <rect x="412.72727" y="532" width="45.954545" height="275" fill="white"/>
      <rect x="412.72727" y="532" width="45.954545" height="275" stroke="black" stroke-linecap="round" stroke-linejoin="round" stroke-width="1"/>
    </g>
  </g>
</svg>
